<svg width="342" height="448" viewBox="0 0 342 448" fill="none" xmlns="http://www.w3.org/2000/svg">
<path fill-rule="evenodd" clip-rule="evenodd" d="M341.044 447.17H268.521L267.28 372.973V365.887H171.367V291.689H267.28V195.943H163.579C113.681 195.943 75.9318 237.597 75.9316 284.458V447.17H0V284.458C0.000175869 193.34 77.6674 122.181 163.579 120.879H341.044V447.17ZM261.062 80.1279L195.931 80.1855L250.278 0.0576172L315.41 0L261.062 80.1279Z" fill="url(#paint0_linear_6_5973)"/>
<path fill-rule="evenodd" clip-rule="evenodd" d="M341.044 447.17H268.521L267.28 372.973V365.887H171.367V291.689H267.28V195.943H163.579C113.681 195.943 75.9318 237.597 75.9316 284.458V447.17H0V284.458C0.000175869 193.34 77.6674 122.181 163.579 120.879H341.044V447.17ZM261.062 80.1279L195.931 80.1855L250.278 0.0576172L315.41 0L261.062 80.1279Z" fill="url(#paint1_linear_6_5973)" fill-opacity="0.12"/>
<defs>
<linearGradient id="paint0_linear_6_5973" x1="170.522" y1="0" x2="170.522" y2="447.17" gradientUnits="userSpaceOnUse">
<stop stop-color="#FEBB01"/>
<stop offset="0.729243" stop-color="#FFBD05"/>
<stop offset="1" stop-color="#F6C84A"/>
</linearGradient>
<linearGradient id="paint1_linear_6_5973" x1="170.522" y1="0" x2="170.522" y2="447.17" gradientUnits="userSpaceOnUse">
<stop stop-color="white"/>
<stop offset="1" stop-color="white" stop-opacity="0"/>
</linearGradient>
</defs>
</svg>
